<?xml version="1.0" standalone="no"?><!DOCTYPE svg PUBLIC "-//W3C//DTD SVG 1.1//EN" "http://www.w3.org/Graphics/SVG/1.1/DTD/svg11.dtd"><svg t="1600839942781" class="icon" viewBox="0 0 1159 1024" version="1.1" xmlns="http://www.w3.org/2000/svg" p-id="4619" width="36.21875" height="32" xmlns:xlink="http://www.w3.org/1999/xlink"><defs><style type="text/css"></style></defs><path d="M1013.528151 144.712453h-108.466717l-36.168453-72.336906C847.582189 30.294943 836.511396 0.057962 796.556075 0.057962h-433.94415c-39.936 0-53.132075 34.506868-72.317585 72.317585l-36.129812 72.336906H145.639849a144.63517 144.63517 0 0 0-144.63517 144.63517V867.888302a144.654491 144.654491 0 0 0 144.63517 144.65449h867.888302a144.63517 144.63517 0 0 0 144.63517-144.65449V289.347623a144.63517 144.63517 0 0 0-144.654491-144.63517z m72.317585 723.19517a72.317585 72.317585 0 0 1-72.317585 72.336905H145.65917a72.317585 72.317585 0 0 1-72.317585-72.336905V289.347623a72.317585 72.317585 0 0 1 72.317585-72.317585h144.63517l36.168452-72.317585c25.580679-42.080604 32.381585-72.336906 72.336906-72.336906h361.607245c39.936 0 46.756226 30.256302 72.317585 72.336906l36.168453 72.317585h144.63517a72.317585 72.317585 0 0 1 72.336906 72.317585V867.888302zM579.622642 289.347623c-159.782642 0-289.308981 129.52634-289.308982 289.28966 0 159.763321 129.54566 289.27034 289.308982 289.27034s289.28966-129.507019 289.28966-289.27034c0-159.782642-129.52634-289.28966-289.28966-289.28966z m0 506.261735c-119.827321 0-216.972075-97.144755-216.972076-216.972075 0-119.827321 97.144755-216.972075 216.972076-216.972075 119.827321 0 216.972075 97.144755 216.972075 216.972075 0 119.827321-97.144755 216.972075-216.972075 216.972075z" fill="#707070" p-id="4620"></path></svg>